<?xml version="1.0" encoding="utf-8"?>
<!-- Generator: Adobe Illustrator 27.5.0, SVG Export Plug-In . SVG Version: 6.00 Build 0)  -->
<svg version="1.1" xmlns="http://www.w3.org/2000/svg" xmlns:xlink="http://www.w3.org/1999/xlink" x="0px" y="0px"
	 viewBox="0 0 500 500" style="enable-background:new 0 0 500 500;" xml:space="preserve">
<g id="OBJECTS">
	<rect style="fill:#FFFFFF;" width="500" height="500"/>
</g>
<g id="BACKGROUND">
	<g>
		<defs>
			<rect id="SVGID_1_" width="500" height="500"/>
		</defs>
		<clipPath id="SVGID_00000029750294035562563230000009093013146841160357_">
			<use xlink:href="#SVGID_1_"  style="overflow:visible;"/>
		</clipPath>
		
			<rect x="-11.894" y="455.724" style="clip-path:url(#SVGID_00000029750294035562563230000009093013146841160357_);fill:#E2EAF2;" width="546.99" height="81.968"/>
		<g style="clip-path:url(#SVGID_00000029750294035562563230000009093013146841160357_);">
			<path style="fill:#E2EAF2;" d="M91.67,242.928h-6.322c-0.279-0.803-0.6-1.587-0.968-2.344l4.468-4.468
				c2.059-2.059,2.059-5.398,0-7.457l-2.545-2.545c-2.059-2.059-5.398-2.059-7.457,0l-4.472,4.472
				c-0.756-0.367-1.538-0.687-2.34-0.965v-6.328c0-2.912-2.361-5.273-5.273-5.273h-3.599c-2.912,0-5.273,2.361-5.273,5.273v6.327
				c-0.803,0.278-1.585,0.599-2.341,0.966l-4.471-4.471c-2.059-2.059-5.398-2.059-7.457,0l-2.545,2.545
				c-2.059,2.059-2.059,5.398,0,7.457l4.471,4.471c-0.367,0.756-0.687,1.539-0.966,2.341h-6.327c-2.912,0-5.273,2.361-5.273,5.273
				v3.599c0,2.912,2.361,5.273,5.273,5.273h6.329c0.278,0.802,0.598,1.584,0.965,2.34l-4.472,4.473
				c-2.059,2.059-2.059,5.398,0,7.457l2.545,2.545c2.059,2.059,5.398,2.059,7.457,0l4.469-4.469c0.757,0.368,1.54,0.689,2.344,0.968
				v6.322c0,2.912,2.361,5.273,5.273,5.273h3.599c2.912,0,5.273-2.361,5.273-5.273v-6.324c0.803-0.279,1.586-0.6,2.342-0.968
				l4.47,4.47c2.059,2.059,5.398,2.059,7.457,0l2.545-2.545c2.059-2.059,2.059-5.398,0-7.457l-4.47-4.47
				c0.368-0.757,0.689-1.539,0.968-2.342h6.324c2.912,0,5.273-2.361,5.273-5.273V248.2C96.943,245.288,94.582,242.928,91.67,242.928
				z M75.709,249.996c0,5.943-4.808,10.751-10.751,10.751c-5.93,0-10.751-4.808-10.751-10.751c0-5.93,4.821-10.751,10.751-10.751
				C70.901,239.245,75.709,244.066,75.709,249.996z"/>
			<path style="fill:none;stroke:#E2EAF2;stroke-miterlimit:10;" d="M139.345,215.913h-3.284c-0.145-0.417-0.312-0.824-0.503-1.217
				l2.321-2.321c1.07-1.07,1.07-2.804,0-3.873l-1.322-1.322c-1.069-1.07-2.804-1.07-3.873,0l-2.323,2.323
				c-0.393-0.191-0.799-0.357-1.215-0.502v-3.287c0-1.513-1.226-2.739-2.739-2.739h-1.869c-1.513,0-2.739,1.226-2.739,2.739V209
				c-0.417,0.145-0.823,0.311-1.216,0.502l-2.322-2.322c-1.069-1.07-2.804-1.07-3.873,0l-1.322,1.322c-1.07,1.07-1.07,2.804,0,3.873
				l2.322,2.322c-0.191,0.393-0.357,0.799-0.502,1.216H111.6c-1.513,0-2.739,1.226-2.739,2.739v1.869
				c0,1.513,1.226,2.739,2.739,2.739h3.287c0.145,0.416,0.311,0.823,0.501,1.215l-2.323,2.323c-1.07,1.07-1.07,2.804,0,3.873
				l1.322,1.322c1.07,1.07,2.804,1.07,3.873,0l2.321-2.321c0.393,0.191,0.8,0.358,1.217,0.503v3.284
				c0,1.513,1.226,2.739,2.739,2.739h1.869c1.513,0,2.739-1.226,2.739-2.739v-3.285c0.417-0.145,0.824-0.311,1.216-0.503
				l2.322,2.322c1.07,1.07,2.804,1.07,3.873,0l1.322-1.322c1.07-1.07,1.07-2.804,0-3.873l-2.322-2.322
				c0.191-0.393,0.358-0.799,0.503-1.216h3.285c1.513,0,2.739-1.226,2.739-2.739v-1.869
				C142.084,217.14,140.858,215.913,139.345,215.913z M131.055,219.585c0,3.087-2.497,5.584-5.584,5.584
				c-3.08,0-5.584-2.497-5.584-5.584c0-3.08,2.504-5.584,5.584-5.584C128.557,214.001,131.055,216.505,131.055,219.585z"/>
			<g>
				<path style="fill:#E2EAF2;" d="M439.12,152.811c-7.863,0-14.237,6.373-14.237,14.237c0,7.863,6.373,14.245,14.237,14.245
					s14.245-6.382,14.245-14.245C453.365,159.184,446.983,152.811,439.12,152.811z M439.12,174.144
					c-3.914,0-7.096-3.174-7.096-7.096c0-3.914,3.182-7.096,7.096-7.096c3.923,0,7.096,3.182,7.096,7.096
					C446.216,170.97,443.043,174.144,439.12,174.144z"/>
				<path style="fill:#E2EAF2;" d="M440.332,159.149h-2.421c-1.91,0-3.458-1.548-3.458-3.458v-6.292c0-1.91,1.548-3.458,3.458-3.458
					h2.421c1.91,0,3.458,1.548,3.458,3.458v6.292C443.79,157.601,442.242,159.149,440.332,159.149z"/>
				<path style="fill:#E2EAF2;" d="M434.391,160.607l-1.712,1.712c-1.35,1.35-3.54,1.35-4.89,0l-4.449-4.449
					c-1.35-1.35-1.35-3.54,0-4.89l1.712-1.712c1.35-1.35,3.54-1.35,4.89,0l4.449,4.449
					C435.741,157.067,435.741,159.257,434.391,160.607z"/>
				<path style="fill:#E2EAF2;" d="M431.221,165.84v2.421c0,1.91-1.548,3.458-3.458,3.458h-6.292c-1.91,0-3.458-1.548-3.458-3.458
					v-2.421c0-1.91,1.548-3.458,3.458-3.458h6.292C429.673,162.382,431.221,163.93,431.221,165.84z"/>
				<path style="fill:#E2EAF2;" d="M432.68,171.781l1.712,1.712c1.35,1.35,1.35,3.54,0,4.89l-4.449,4.449
					c-1.35,1.35-3.54,1.35-4.89,0l-1.712-1.712c-1.35-1.35-1.35-3.54,0-4.89l4.449-4.449
					C429.14,170.431,431.329,170.431,432.68,171.781z"/>
				<path style="fill:#E2EAF2;" d="M437.912,174.951h2.421c1.91,0,3.458,1.548,3.458,3.458v6.292c0,1.91-1.548,3.458-3.458,3.458
					h-2.421c-1.91,0-3.458-1.548-3.458-3.458v-6.292C434.454,176.499,436.002,174.951,437.912,174.951z"/>
				<path style="fill:#E2EAF2;" d="M443.853,173.493l1.712-1.712c1.35-1.35,3.54-1.35,4.89,0l4.449,4.449
					c1.35,1.35,1.35,3.54,0,4.89l-1.712,1.712c-1.35,1.35-3.54,1.35-4.89,0l-4.449-4.449
					C442.503,177.032,442.503,174.843,443.853,173.493z"/>
				<path style="fill:#E2EAF2;" d="M447.023,168.26v-2.421c0-1.91,1.548-3.458,3.458-3.458h6.292c1.91,0,3.458,1.548,3.458,3.458
					v2.421c0,1.91-1.548,3.458-3.458,3.458h-6.292C448.572,171.718,447.023,170.17,447.023,168.26z"/>
				<path style="fill:#E2EAF2;" d="M445.565,162.319l-1.712-1.712c-1.35-1.35-1.35-3.54,0-4.89l4.449-4.449
					c1.35-1.35,3.54-1.35,4.89,0l1.712,1.712c1.35,1.35,1.35,3.54,0,4.89l-4.449,4.449
					C449.105,163.669,446.915,163.669,445.565,162.319z"/>
			</g>
		</g>
		<g style="clip-path:url(#SVGID_00000029750294035562563230000009093013146841160357_);">
			<g>
				<rect x="267.629" y="460.309" style="fill:#BFCFE0;" width="17.77" height="114.827"/>
				<path style="fill:#D2DFEE;" d="M309.045,177.243c40.31,1.155,89.715,1.419,110,42.482
					c20.285,41.063-12.348,219.155-57.769,217.865c-45.421-1.291-158.028,1.305-159.052,0.007
					c-1.024-1.298-1.604-204.778,22.878-231.253S275.062,176.27,309.045,177.243z"/>
				<path style="fill:#BFCFE0;" d="M395.614,196.796c-35.943-10.189-62.477,135.868-64.961,183.974
					c-2.868,55.552,27.12,72.127,50.839,48.405c23.719-23.723,60.5-170.419,48.436-198.766
					C414.113,193.249,395.614,196.796,395.614,196.796z"/>
				<path style="fill:none;stroke:#8AA5BD;stroke-linecap:round;stroke-miterlimit:10;" d="M381.492,429.175
					c-30.976,25.513-47.839,0-51.78-35.37c-3.363-30.179,25.914-178.143,55.842-195.853c4.972-2.942,19.764-1.592,26.267,5.238"/>
				<path style="fill:#B3BDCA;" d="M356.931,462.546H205.621c-8.271,0-14.977-6.705-14.977-14.977v-3.417
					c0-8.271,6.705-14.977,14.977-14.977h151.311c8.271,0,14.977,6.705,14.977,14.977v3.417
					C371.908,455.84,365.203,462.546,356.931,462.546z"/>
				<path style="fill:#A3B1BF;" d="M356.931,462.546h-21.279c-8.272,0-14.977-6.705-14.977-14.977v-3.417
					c0-8.271,6.705-14.977,14.977-14.977h21.279c8.271,0,14.977,6.705,14.977,14.977v3.417
					C371.908,455.84,365.203,462.546,356.931,462.546z"/>
			</g>
			<g>
				<path style="fill:#441C06;" d="M216.985,359.761c-35.531,13.498-72.606,29.484-77.765,42.805
					c-5.159,13.322,11.305,158.324,11.305,158.324l46.728,7.75l-5.093-141.402l106.864-45.987l-17.627-17.051L216.985,359.761z"/>
				<path style="fill:#5A2402;" d="M331.63,359.727c1.204,23.112-0.993,53.464-22.129,71.355
					c-17.809,15.074-66.157,26.934-66.157,26.934l-9.213,102.875h-47.553c0,0-0.795-122.41,0-139.897
					c0.795-17.487,85.844-61.233,85.844-61.233L331.63,359.727z"/>
				<path style="fill:none;stroke:#7F370E;stroke-linecap:round;stroke-miterlimit:10;" d="M247.778,456.857
					c-12.241,0.964-12.241,0.964-12.241,0.964"/>
				<path style="fill:none;stroke:#7F370E;stroke-linecap:round;stroke-miterlimit:10;" d="M214.28,393.805
					c-19.376,14.944-28.126,19.129-28.055,31.867c0.071,12.738,0.048,69.153,0.048,69.153"/>
				<path style="fill:none;stroke:#7F370E;stroke-linecap:round;stroke-miterlimit:10;" d="M322.953,364.201
					c0.647,51.641-91.924,88.553-91.924,88.553l-5.927,108.136"/>
			</g>
			<path style="fill:#F7C272;" d="M232.682,226.088c0,0,63.947-14.314,110.175,0L331.63,359.727h-86.512l-3.962-70.001
				L232.682,226.088z"/>
			<path style="fill:#F7C272;" d="M322.953,217.338c0,0,27.822,8.724,35.264,15.481c7.442,6.757,22.049,56.908,27.945,83.961
				c2.018,9.261,9.013,38.026-24.694,37.181c-28.513-0.714-76.07-26.265-76.07-26.265l5.384-25.023c0,0,22.066,3.487,52.809,10.871
				l-16.63-63.55l-25.862-11.736L322.953,217.338z"/>
			<polyline style="fill:#DD993E;" points="291.031,301.994 286.048,328.359 296.303,334.427 303.473,304.382 292.84,302.614 			"/>
			<path style="fill:#F7C272;" d="M271.646,216.712c-12.049,1.571-37.778,6.255-41.37,10.658
				c-13.386,16.409-45.06,89.337-48.581,99.898c-3.52,10.561-2.816,24.642,9.857,28.867c12.673,4.224,53.566,3.591,53.566,3.591
				l4.466-26.38l-23.828-13.689l26.688-56.834"/>
			<g>
				<path style="fill:#4D6582;" d="M201.353,321.608H97.732c-2.973,0-5.509-2.153-5.991-5.086l-10.22-62.163
					c-0.608-3.697,2.244-7.056,5.991-7.056h103.62c2.973,0,5.508,2.153,5.991,5.086l10.22,62.163
					C207.951,318.248,205.099,321.608,201.353,321.608z"/>
				<path style="fill:#5F799E;" d="M196.152,321.608H92.531c-2.973,0-5.508-2.153-5.991-5.086l-10.22-62.163
					c-0.608-3.697,2.245-7.056,5.991-7.056h103.62c2.973,0,5.508,2.153,5.991,5.086l10.22,62.163
					C202.75,318.248,199.898,321.608,196.152,321.608z"/>
				<path style="fill:#6F89AA;" d="M179.177,313.545h-76.281c-2.188,0-4.055-1.585-4.41-3.744l-7.523-45.762
					c-0.447-2.721,1.652-5.194,4.41-5.194h76.281c2.189,0,4.055,1.585,4.41,3.744l7.523,45.762
					C184.034,311.072,181.934,313.545,179.177,313.545z"/>
				<rect x="128.269" y="306.161" style="fill:#7289A0;" width="28.182" height="43.071"/>
				<rect x="128.269" y="306.161" style="fill:#8096AF;" width="22.402" height="43.071"/>
				<path style="fill:#5F799E;" d="M179.737,355.111h-74.754v-1.725c0-2.294,1.86-4.155,4.155-4.155h66.445
					c2.294,0,4.155,1.86,4.155,4.155V355.111z"/>
				<rect x="119.651" y="301.076" style="fill:#9BACBC;" width="43.214" height="5.084"/>
			</g>
			<g>
				<rect x="217.921" y="346.274" style="fill:#5F7D9E;" width="94.927" height="8.837"/>
				<rect x="207.425" y="346.274" style="fill:#6F89AA;" width="94.927" height="8.837"/>
				<g>
					<rect x="211.178" y="344.517" style="fill:#5F799E;" width="6.204" height="2.045"/>
					<rect x="219.553" y="344.517" style="fill:#5F799E;" width="6.204" height="2.045"/>
					<rect x="227.927" y="344.517" style="fill:#5F799E;" width="6.204" height="2.045"/>
					<rect x="236.302" y="344.517" style="fill:#5F799E;" width="6.204" height="2.045"/>
					<rect x="244.676" y="344.517" style="fill:#5F799E;" width="6.204" height="2.045"/>
					<rect x="253.051" y="344.517" style="fill:#5F799E;" width="6.204" height="2.045"/>
					<rect x="261.425" y="344.517" style="fill:#5F799E;" width="6.203" height="2.045"/>
					<rect x="269.8" y="344.517" style="fill:#5F799E;" width="6.203" height="2.045"/>
					<rect x="278.174" y="344.517" style="fill:#5F799E;" width="6.203" height="2.045"/>
					<rect x="286.549" y="344.517" style="fill:#5F799E;" width="6.203" height="2.045"/>
					<rect x="294.923" y="344.517" style="fill:#5F799E;" width="6.203" height="2.045"/>
					<rect x="303.298" y="344.517" style="fill:#5F799E;" width="6.204" height="2.045"/>
				</g>
			</g>
			<path style="fill:none;stroke:#DD9F4E;stroke-linecap:round;stroke-miterlimit:10;" d="M330.638,264.044l12.953,49.501
				c0,0,7.054,9.162,9.018,14.151"/>
			<path style="fill:none;stroke:#DD9F4E;stroke-linecap:round;stroke-miterlimit:10;" d="M343.591,332.358
				c0,0,2.144-10.802,0-18.813c0,0-41.314-9.787-52.809-10.871"/>
			<path style="fill:none;stroke:#DD9F4E;stroke-linecap:round;stroke-miterlimit:10;" d="M285.398,327.696
				c25.426,18.578,72.37,28.869,85.28,25.624c12.91-3.245,20.81-10.861,16.947-28.863"/>
			<path style="fill:#FFFFFF;" d="M256.152,219.24l25.124,39.604l41.677-41.506c0,0-12.603-2.875-33.401-2.551
				C268.755,215.111,256.152,219.24,256.152,219.24z"/>
			<g>
				<path style="fill:#5A2402;" d="M306.339,164.821c-1.093-0.379-2.061-0.595-2.162-0.196c-0.253,0.972,1.282-11.563,1.282-11.563
					l-11.209-8.169l-0.191-0.142l-15.254-11.101l-22.533,7.866c-0.298-0.054-0.593-0.12-0.9-0.188
					c-11.49-2.555,2.899-11.699,12.997-12.415c10.096-0.705,21.668,1.596,32.57,7.242
					C311.631,141.695,312.336,158.979,306.339,164.821z"/>
				<g>
					<path style="fill:#F9D5BF;" d="M271.634,212.565c0,0,0,0.944,0,9.47c0,8.526,8.824,14.367,20.856,8.256
						c10.228-5.195,11.416-11.544,11.416-16.764c0-5.22,0-33.659,0-33.659l-32.222,28.172L271.634,212.565z"/>
					<path style="fill:#FCA695;" d="M294.562,190.813c-1.926,7.111-11.426,17.228-22.879,17.228
						c-0.012-0.127-0.05-18.374-0.05-18.374L294.562,190.813z"/>
					<path style="fill:#F9D5BF;" d="M267.156,130.579c-20.237,7.767-23.259,23.879-23.566,37.634
						c-0.332,14.857,7.385,27.089,20.081,29.913c17.177,3.819,33.584-3.707,38.69-19.923c5.105-16.216,5.509-36.516-6.797-41.306
						C283.256,132.105,267.156,130.579,267.156,130.579z"/>
					<path style="fill:#FFFFFF;" d="M265.978,175.992c3.762-1.663,7.089-0.471,9.132,1.113c2.043,1.584,1.151,4.099-3.6,4.158
						c-4.751,0.059-7.522,2.831-8.215,0.752S263.921,176.902,265.978,175.992z"/>
					<path style="fill:#5A2402;" d="M259.734,157.058c-0.345,1.552-1.414,2.635-2.387,2.419c-0.973-0.216-1.482-1.65-1.137-3.202
						c0.345-1.552,1.414-2.635,2.387-2.419C259.57,154.073,260.079,155.506,259.734,157.058z"/>
					<path style="fill:#5A2402;" d="M279.963,161.557c-0.345,1.552-1.414,2.635-2.387,2.419c-0.973-0.216-1.482-1.65-1.137-3.202
						c0.345-1.552,1.414-2.635,2.387-2.419C279.799,158.571,280.308,160.005,279.963,161.557z"/>
					<path style="fill:#5A2402;" d="M278.085,147.67c4.589-0.854,10.626,2.673,10.629,5.525c0.003,2.852-1.361,3.974-2.575,3.704
						c-1.213-0.27-3.398-4.387-9.405-4.23C274.608,152.725,274.014,148.428,278.085,147.67z"/>
					<path style="fill:#5A2402;" d="M264.65,144.683c-3.093-2.562-8.968-1.684-10.077,0.921c-1.109,2.605-0.527,4.16,0.483,4.384
						c1.01,0.225,4.24-2.689,8.662-0.212C265.282,150.651,267.394,146.956,264.65,144.683z"/>
					<path style="fill:none;stroke:#DB7665;stroke-linecap:round;stroke-miterlimit:10;" d="M267.444,156.571
						c-1.161,2.748-4.206,8.9-5.632,11.757c-0.405,0.811,0.002,1.792,0.863,2.074c1.808,0.59,4.653,1.398,5.966,1.124"/>
					<g>
						<path style="fill:#F9D5BF;" d="M298.408,170.164c5.765-7.016,12.496-5.774,13.389-0.336
							c0.893,5.439-5.55,14.717-13.227,13.786"/>
						<path style="fill:#FCA695;" d="M307.689,170.887c1.285,1.199,1.918,4.514-2.077,6.583c-3.995,2.069-7.32,1.033-7.32,1.033
							s0.302-4.061,2.948-5.851C303.887,170.862,306.839,170.002,307.689,170.887z"/>
						<path style="fill:none;stroke:#DB7665;stroke-linecap:round;stroke-miterlimit:10;" d="M300.046,173.824
							c4.835-5.199,8.118-3.418,8.452-1.767"/>
						<path style="fill:none;stroke:#DB7665;stroke-linecap:round;stroke-miterlimit:10;" d="M302.55,171.955
							c2.869-0.232,2.243,3.374,1.044,4.037"/>
					</g>
					<path style="fill:none;stroke:#DB7665;stroke-linecap:round;stroke-miterlimit:10;" d="M271.511,199.04
						c12.152,0.14,21.769-5.697,25.336-10.827"/>
					<path style="fill:#FCA695;" d="M269.866,183.605c1.21,0.264,5.008-1.434,5.224-0.545c0.216,0.89-1.361,2.332-2.712,2.859
						C271.027,186.447,268.656,183.341,269.866,183.605z"/>
					<path style="fill:#FCA695;" d="M288.755,169.69c-0.351,1.58-2.277,2.496-4.3,2.046c-2.024-0.45-3.379-2.096-3.028-3.676
						c0.351-1.58,2.277-2.496,4.3-2.046C287.751,166.464,289.106,168.11,288.755,169.69z"/>
					<path style="fill:#FCA695;" d="M256.663,162.554c-0.351,1.58-2.277,2.496-4.3,2.046c-2.024-0.45-3.379-2.096-3.028-3.676
						c0.351-1.58,2.277-2.496,4.3-2.046C255.659,159.328,257.014,160.973,256.663,162.554z"/>
				</g>
				<path style="fill:#5A2402;" d="M309.777,166.305c0,0-1.865-0.923-3.438-1.483c-0.1,0.114-0.211,0.226-0.332,0.323
					c-5.061,1.081-11.95,16.119-11.95,16.119l-3-0.667c0,0,2.333-9.879,5.73-18.245c0,0-4.181-10.237-2.762-16.614l0.224-0.842
					c0.01-0.047,0.033-0.092,0.043-0.139c0,0-0.076,0.008-0.235-0.003c-1.831,0.039-14.052,0.048-19.439-4.372
					c0,0-11.455,0.464-18.192-3.797l-6.578,7.175c-8.555-13.304-5.474-21.753,4.89-21.989c0,0-6.335-13.145,14.185-14.357
					c20.506-1.203,43.374,13.053,45.262,30.365c0,0,4.093,4.554,5.113,10.667C320.215,153.865,318.701,160.506,309.777,166.305z"/>
				<path style="fill:#6B4029;" d="M309.777,166.305c0,0-1.865-0.923-3.438-1.483c-0.1,0.114-0.211,0.226-0.332,0.323
					c-5.061,1.081-11.95,16.119-11.95,16.119l-3-0.667c0,0,2.333-9.879,5.73-18.245c0,0-4.181-10.237-2.762-16.614l0.224-0.842
					c9.314,3.149,19.223,3.618,25.051,3.55C320.215,153.865,318.701,160.506,309.777,166.305z"/>
				<path style="fill:#5A2402;" d="M315.763,135.814c0.826-3.715,3.438-6.639,4.392-6.429c2.506,0.551,4.799,3.515,2.849,4.039
					c-2.029,0.545-3.657,1.487-6.107,3.334C316.398,137.135,315.763,135.814,315.763,135.814z"/>
			</g>
			<path style="fill:none;stroke:#DD9F4E;stroke-linecap:round;stroke-miterlimit:10;" d="M239.496,258.844
				c-0.755,13.879,1.66,30.882,1.66,30.882"/>
			<g>
				<path style="fill:none;stroke:#5F799E;stroke-width:3;stroke-miterlimit:10;" d="M262.707,312.895h-13.023v-27.773h13.023
					c4.516,0,8.177,3.661,8.177,8.177v11.42C270.884,309.234,267.223,312.895,262.707,312.895z"/>
				<path style="fill:#5F799E;" d="M249.033,318.211h-16.51c-1.576,0-2.907-1.17-3.108-2.733l-4.286-33.219
					c-0.242-1.875,1.218-3.535,3.108-3.535h26.512c1.943,0,3.418,1.75,3.089,3.665l-5.715,33.219
					C251.863,317.112,250.559,318.211,249.033,318.211z"/>
				<path style="fill:#4D6582;" d="M257.833,282.392l-5.715,33.222c-0.256,1.493-1.56,2.596-3.086,2.596h-16.511
					c-1.526,0-2.83-1.103-3.086-2.596h15.775c1.526,0,2.83-1.103,3.086-2.607l5.715-33.211c0.067-0.368,0.067-0.724,0-1.07h0.735
					C256.697,278.727,258.167,280.476,257.833,282.392z"/>
			</g>
			<path style="fill:none;stroke:#DD9F4E;stroke-linecap:round;stroke-miterlimit:10;" d="M217.382,315.948
				c13.06,4.401,47.145,29.591,47.145,29.591"/>
			<g>
				<path style="fill:#F9D5BF;" d="M290.032,306.161l-12.105-16.434c0,0-19.501-1.204-20.044,0.684
					c-1.092,3.796-0.002,7.534-0.002,7.534h1.374c0,0,0.895,10.41,0.895,15.601c0,8.063,9.56,11.866,14.277,10.198
					c4.717-1.668-1.605-2.135-1.605-2.135l13.368,2.411L290.032,306.161z"/>
				<path style="fill:none;stroke:#DB7665;stroke-linecap:round;stroke-miterlimit:10;" d="M259.254,297.944
					c1.582-0.231,4.093,0,4.093,0"/>
				<path style="fill:none;stroke:#DB7665;stroke-linecap:round;stroke-miterlimit:10;" d="M267.953,319.342
					c4.868,2.266,7.545,2.749,7.545,2.749"/>
				<path style="fill:none;stroke:#DB7665;stroke-linecap:round;stroke-miterlimit:10;" d="M259.682,303.516
					c1.657-0.104,3.665,0,3.665,0"/>
				<path style="fill:none;stroke:#DB7665;stroke-linecap:round;stroke-miterlimit:10;" d="M260.065,310.13
					c1.8-0.311,4.005,0.949,4.005,0.949"/>
				<path style="fill:none;stroke:#DB7665;stroke-linecap:round;stroke-miterlimit:10;" d="M263.348,296.271
					c0.407,10.607,0.723,16.324,0.723,16.324"/>
			</g>
			<g>
				<rect x="69.885" y="364.201" style="fill:#E5766A;" width="344.001" height="18.215"/>
				<rect x="57.565" y="355.111" style="fill:#F79484;" width="368.64" height="9.09"/>
				
					<line style="fill:none;stroke:#BC5648;stroke-linecap:round;stroke-miterlimit:10;" x1="144.432" y1="364.201" x2="397.55" y2="364.201"/>
				<g>
					<rect x="82.034" y="382.416" style="fill:#F79484;" width="14.663" height="192.719"/>
					<rect x="387.073" y="382.416" style="fill:#F79484;" width="14.663" height="192.719"/>
				</g>
			</g>
		</g>
		<g style="clip-path:url(#SVGID_00000029750294035562563230000009093013146841160357_);">
			<g>
				<rect x="41.935" y="45.162" style="fill:#D2DFEE;" width="172.883" height="137.789"/>
				<rect x="41.935" y="116.005" style="fill:#E9EEF4;" width="172.883" height="23.877"/>
				<g>
					<rect x="79.652" y="72.544" style="fill:#A8C5E2;" width="108.133" height="6.203"/>
					<rect x="79.652" y="72.544" style="fill:#89AECE;" width="65.684" height="6.203"/>
					<rect x="58.64" y="72.204" style="fill:#89AECE;" width="6.883" height="6.883"/>
					<polyline style="fill:none;stroke:#FFFFFF;stroke-width:2;stroke-miterlimit:10;" points="56.33,72.204 61.393,76.359 
						70.668,66.739 					"/>
				</g>
				<g>
					<rect x="79.652" y="98.692" style="fill:#A8C5E2;" width="108.133" height="6.203"/>
					<rect x="79.652" y="98.692" style="fill:#89AECE;" width="49.261" height="6.203"/>
					<rect x="58.64" y="98.353" style="fill:#89AECE;" width="6.883" height="6.883"/>
					<polyline style="fill:none;stroke:#FFFFFF;stroke-width:2;stroke-miterlimit:10;" points="56.33,98.353 61.393,102.508 
						70.668,92.888 					"/>
				</g>
				<g>
					<rect x="79.652" y="150.99" style="fill:#A8C5E2;" width="108.133" height="6.203"/>
					<rect x="79.652" y="150.99" style="fill:#89AECE;" width="81.157" height="6.203"/>
					<rect x="58.64" y="150.65" style="fill:#89AECE;" width="6.883" height="6.883"/>
					<polyline style="fill:none;stroke:#FFFFFF;stroke-width:2;stroke-miterlimit:10;" points="56.33,150.65 61.393,154.806 
						70.668,145.186 					"/>
				</g>
				<g>
					<rect x="79.652" y="124.841" style="fill:#A8C5E2;" width="108.133" height="6.203"/>
					<rect x="79.652" y="124.841" style="fill:#FC9787;" width="4.678" height="6.203"/>
					<rect x="58.64" y="124.502" style="fill:#FC9787;" width="6.883" height="6.883"/>
					
						<line style="fill:none;stroke:#FFFFFF;stroke-width:2;stroke-miterlimit:10;" x1="56.695" y1="123.01" x2="67.468" y2="132.876"/>
					
						<line style="fill:none;stroke:#FFFFFF;stroke-width:2;stroke-miterlimit:10;" x1="67.015" y1="122.556" x2="57.148" y2="133.329"/>
				</g>
			</g>
			<g>
				<g>
					<path style="fill:#D2DFEE;" d="M446.116,58.488h-95.175c-2.487,0-4.504-2.016-4.504-4.504v-11.04
						c0-2.487,2.016-4.504,4.504-4.504h95.175c2.487,0,4.504,2.016,4.504,4.504v11.04C450.62,56.472,448.603,58.488,446.116,58.488z
						"/>
					<rect x="355.575" y="44.449" style="fill:#A8C5E2;" width="20.061" height="2.791"/>
					<rect x="355.575" y="49.951" style="fill:#A8C5E2;" width="20.061" height="2.845"/>
					<rect x="393.095" y="44.449" style="fill:#A8C5E2;" width="48.209" height="8.347"/>
					<rect x="383.671" y="42.582" style="fill:#A8C5E2;" width="0.701" height="11.679"/>
					<rect x="397.143" y="46.321" style="fill:#D2DFEE;" width="4.603" height="4.603"/>
					<rect x="406.02" y="46.321" style="fill:#D2DFEE;" width="4.603" height="4.603"/>
					<rect x="414.898" y="46.321" style="fill:#D2DFEE;" width="4.603" height="4.603"/>
					<rect x="423.775" y="46.321" style="fill:#D2DFEE;" width="4.603" height="4.603"/>
					<rect x="432.652" y="46.321" style="fill:#D2DFEE;" width="4.603" height="4.603"/>
				</g>
				<g>
					<path style="fill:#D2DFEE;" d="M446.116,82.943h-95.175c-2.487,0-4.504-2.016-4.504-4.504V67.4
						c0-2.487,2.016-4.504,4.504-4.504h95.175c2.487,0,4.504,2.016,4.504,4.504v11.04C450.62,80.927,448.603,82.943,446.116,82.943z
						"/>
					<rect x="355.575" y="68.904" style="fill:#A8C5E2;" width="20.061" height="2.791"/>
					<rect x="355.575" y="74.406" style="fill:#A8C5E2;" width="20.061" height="2.845"/>
					<rect x="393.095" y="68.904" style="fill:#A8C5E2;" width="48.209" height="8.347"/>
					<rect x="383.671" y="67.037" style="fill:#A8C5E2;" width="0.701" height="11.679"/>
					<rect x="397.143" y="70.776" style="fill:#D2DFEE;" width="4.603" height="4.603"/>
					<rect x="406.02" y="70.776" style="fill:#D2DFEE;" width="4.603" height="4.603"/>
					<rect x="414.898" y="70.776" style="fill:#D2DFEE;" width="4.603" height="4.603"/>
					<rect x="423.775" y="70.776" style="fill:#D2DFEE;" width="4.603" height="4.603"/>
					<rect x="432.652" y="70.776" style="fill:#D2DFEE;" width="4.603" height="4.603"/>
				</g>
				<rect x="356.569" y="58.488" style="fill:#A8C5E2;" width="83.92" height="4.408"/>
				<g>
					<path style="fill:#D2DFEE;" d="M446.116,107.398h-95.175c-2.487,0-4.504-2.017-4.504-4.504v-11.04
						c0-2.487,2.016-4.504,4.504-4.504h95.175c2.487,0,4.504,2.016,4.504,4.504v11.04
						C450.62,105.382,448.603,107.398,446.116,107.398z"/>
					<rect x="355.575" y="93.359" style="fill:#A8C5E2;" width="20.061" height="2.791"/>
					<rect x="355.575" y="98.861" style="fill:#A8C5E2;" width="20.061" height="2.845"/>
					<rect x="393.095" y="93.359" style="fill:#FC9787;" width="48.209" height="8.347"/>
					<rect x="383.671" y="91.493" style="fill:#A8C5E2;" width="0.701" height="11.679"/>
					<rect x="397.143" y="95.231" style="fill:#EA7468;" width="4.603" height="4.603"/>
					<rect x="406.02" y="95.231" style="fill:#EA7468;" width="4.603" height="4.603"/>
					<rect x="414.898" y="95.231" style="fill:#EA7468;" width="4.603" height="4.603"/>
					<rect x="423.775" y="95.231" style="fill:#EA7468;" width="4.603" height="4.603"/>
					<rect x="432.652" y="95.231" style="fill:#EA7468;" width="4.603" height="4.603"/>
				</g>
				<rect x="356.569" y="82.943" style="fill:#A8C5E2;" width="83.92" height="4.408"/>
				<g>
					<path style="fill:#D2DFEE;" d="M446.116,131.853h-95.175c-2.487,0-4.504-2.016-4.504-4.504V116.31
						c0-2.487,2.016-4.504,4.504-4.504h95.175c2.487,0,4.504,2.016,4.504,4.504v11.039
						C450.62,129.837,448.603,131.853,446.116,131.853z"/>
					<rect x="355.575" y="117.814" style="fill:#A8C5E2;" width="20.061" height="2.791"/>
					<rect x="355.575" y="123.316" style="fill:#A8C5E2;" width="20.061" height="2.845"/>
					<rect x="393.095" y="117.814" style="fill:#A8C5E2;" width="48.209" height="8.347"/>
					<rect x="383.671" y="115.948" style="fill:#A8C5E2;" width="0.701" height="11.679"/>
					<rect x="397.143" y="119.686" style="fill:#D2DFEE;" width="4.603" height="4.603"/>
					<rect x="406.02" y="119.686" style="fill:#D2DFEE;" width="4.603" height="4.603"/>
					<rect x="414.898" y="119.686" style="fill:#D2DFEE;" width="4.603" height="4.603"/>
					<rect x="423.775" y="119.686" style="fill:#D2DFEE;" width="4.603" height="4.603"/>
					<rect x="432.652" y="119.686" style="fill:#D2DFEE;" width="4.603" height="4.603"/>
				</g>
				<rect x="356.569" y="107.398" style="fill:#A8C5E2;" width="83.92" height="4.408"/>
			</g>
			<g>
				<polyline style="fill:none;stroke:#A8C5E2;stroke-miterlimit:10;" points="346.437,97.374 303.74,97.374 303.74,66.739 
					233.044,66.739 233.044,127.943 217.61,127.943 				"/>
				<rect x="214.818" y="124.813" style="fill:#89AECE;" width="2.792" height="6.26"/>
				<rect x="343.645" y="94.245" style="fill:#89AECE;" width="2.792" height="6.26"/>
			</g>
			<g>
				
					<ellipse transform="matrix(0.7071 -0.7071 0.7071 0.7071 32.5623 206.445)" style="fill:#EA7468;" cx="265.482" cy="63.916" rx="14.522" ry="14.522"/>
				<g>
					
						<line style="fill:none;stroke:#FFFFFF;stroke-width:2;stroke-miterlimit:10;" x1="260.096" y1="58.983" x2="270.869" y2="68.85"/>
					
						<line style="fill:none;stroke:#FFFFFF;stroke-width:2;stroke-miterlimit:10;" x1="270.415" y1="58.53" x2="260.549" y2="69.303"/>
				</g>
			</g>
		</g>
		<g style="clip-path:url(#SVGID_00000029750294035562563230000009093013146841160357_);">
			<g>
				<g>
					<g>
						<path style="fill:#8EC098;" d="M449.152,468.532c-1.754-34.476,31.558-96.103,31.558-96.103S490.936,455.648,449.152,468.532z
							"/>
						<path style="fill:none;stroke:#B8D8BD;stroke-miterlimit:10;" d="M477.952,379.81c-6.82,20.216-32.602,95.637-32.602,95.637"
							/>
					</g>
					<g>
						<path style="fill:#76A87E;" d="M451.613,459.177c-21.366-34.218-2.544-113.108-2.544-113.108S486.756,426.635,451.613,459.177
							z"/>
						<path style="fill:none;stroke:#B8D8BD;stroke-miterlimit:10;" d="M450.458,354.854c4.553,23.718,1.219,113.12,1.219,113.12"/>
					</g>
					<g>
						<path style="fill:#8EC098;" d="M443.026,467.88c-24.768-26.237-17.078-102.371-17.078-102.371S467.267,434.488,443.026,467.88
							z"/>
						<path style="fill:none;stroke:#B8D8BD;stroke-miterlimit:10;" d="M428.777,372.868
							c8.329,19.747,15.938,102.583,15.938,102.583"/>
					</g>
				</g>
				<rect x="433.98" y="453.838" style="fill:#CDD9E8;" width="38.697" height="56.562"/>
			</g>
		</g>
	</g>
</g>
</svg>
